# xmcd CD database file
# Copyright (C) 1993-1998 Ti Kan
#
# Track frame offsets:
#	150
#	12097
#	22290
#	35045
#	51247
#	62352
#	75660
#	90615
#	105442
#	120660
#	131950
#	146092
#	159060
#	170820
#	183962
#	197507
#	210000
#	225020
#	236932
#	249222
#	259667
#	275152
#	286257
#	303957
#	315860
#	327560
#
# Disc length: 4482 seconds
#
# Revision: 1
# Processed by: cddbd v1.4b41PL1 Copyright (c) Steve Scherf et al.
# Submitted via: CDValet v3.31 - Copyright (c) 1997 Greg Leichner
#
DISCID=5d11801a
DTITLE=Multiple - 50 The Family That Prays - Porter Wagoner
DYEAR=1900
DGENRE=
TTITLE0=The Family That Prays - Porter Wagoner
TTITLE1=I Need Thee Every Hour - Scott Singers
TTITLE2=Softly and Tenderly - Guy and Ralna
TTITLE3=May The Good Lord Bless - Kate Smith
TTITLE4=Crying in The Chapel - Elvis Presley
TTITLE5=It is No Secret - Jim reeves
TTITLE6=A Beautiful Life - Statler Brothers
TTITLE7=One Day At A Time - Christy Lane
TTITLE8=Nearer My God To Thee - Jack Halloran Male Chorus
TTITLE9=I'll fly Away - Charley Pride
TTITLE10=What A Friend - Norma Zimmer/Jim Roberts
TTITLE11=Bless This House - Perry Como
TTITLE12=Wings Of A Dove - Dolly Parton
TTITLE13=Precious Memories -Jimmy Dean
TTITLE14=Swing Low - Doris Ackers
TTITLE15=I Saw The Light -Hank Williams, Jr.
TTITLE16=Whispering Hope - The Browns
TTITLE17=Standing On The Promises - Johnson Family
TTITLE18=Blessed Assurance - George Beverly Shea
TTITLE19=Take My Hand, Precious Lord -Eddy Arnold
TTITLE20=Beautiful Isle Of Somewhere -The Three Suns
TTITLE21=Peace In The Valley - Floyd Cramer
TTITLE22=Abide With Me - Don Hustad Chorale
TTITLE23=He Touched Me - Bill Gaither Trio
TTITLE24=Jesus Is coming Soon - Oak Ridge Boys
TTITLE25=Jesus Loves Me - Tennessee Ernie Ford
EXTD=
EXTT0=
EXTT1=
EXTT2=
EXTT3=
EXTT4=
EXTT5=
EXTT6=
EXTT7=
EXTT8=
EXTT9=
EXTT10=
EXTT11=
EXTT12=
EXTT13=
EXTT14=
EXTT15=
EXTT16=
EXTT17=
EXTT18=
EXTT19=
EXTT20=
EXTT21=
EXTT22=
EXTT23=
EXTT24=
EXTT25=
PLAYORDER=
